<svg width="500" height="500" viewBox="0 0 500 500" fill="none" xmlns="http://www.w3.org/2000/svg">
<path d="M402.949 184.671C374.772 133.596 320.396 98.9999 257.94 98.9999C166.537 98.9999 92.4398 173.097 92.4398 264.5C92.4398 355.903 166.537 430 257.94 430C349.343 430 423.44 355.903 423.44 264.5H319.44" stroke="#7FDEFF" stroke-width="25" stroke-linecap="round" stroke-linejoin="round"/>
<path d="M165.44 131.5L165.44 264M165.44 264L92.9397 264M165.44 264L165.44 320" stroke="#7FDEFF" stroke-width="25" stroke-linecap="round" stroke-linejoin="round"/>
<circle cx="202.94" cy="264.5" r="37.5" stroke="#7FDEFF" stroke-width="25" stroke-linecap="round" stroke-linejoin="round"/>
<path d="M393.44 264.5C393.44 243.789 376.65 227 355.94 227C335.229 227 318.44 243.789 318.44 264.5C318.44 285.211 335.229 302 355.94 302C361.273 302 366.346 300.887 370.94 298.88" stroke="#7FDEFF" stroke-width="25" stroke-linecap="round" stroke-linejoin="round"/>
<path d="M279.44 227L279.44 320" stroke="#7FDEFF" stroke-width="25" stroke-linecap="round" stroke-linejoin="round"/>
<circle cx="279.69" cy="166.25" r="6.25" stroke="#7FDEFF" stroke-width="12.5" stroke-linecap="round" stroke-linejoin="round"/>
<path d="M160.179 132.128C121.44 109.5 74.9426 116.809 74.9426 116.809C74.9426 116.809 74.9426 164 104.294 198.286" stroke="#7FDEFF" stroke-width="25" stroke-linejoin="round"/>
<path d="M393.604 160.016C414.042 120.078 404.158 74.0593 404.158 74.0593C404.158 74.0593 357.04 76.6843 324.44 107.898" stroke="#7FDEFF" stroke-width="25" stroke-linejoin="round"/>
<path d="M410.389 177.671C382.212 126.596 327.836 91.9999 265.38 91.9999C173.976 91.9999 99.8795 166.097 99.8795 257.5C99.8795 348.903 173.976 423 265.38 423C356.783 423 430.88 348.903 430.88 257.5H326.88" stroke="#F88DAD" stroke-width="25" stroke-linecap="round" stroke-linejoin="round"/>
<path d="M172.88 124.5L172.88 257M172.88 257L100.379 257M172.88 257L172.88 313" stroke="#F88DAD" stroke-width="25" stroke-linecap="round" stroke-linejoin="round"/>
<circle cx="210.38" cy="257.5" r="37.5" stroke="#F88DAD" stroke-width="25" stroke-linecap="round" stroke-linejoin="round"/>
<path d="M400.88 257.5C400.88 236.789 384.09 220 363.38 220C342.669 220 325.88 236.789 325.88 257.5C325.88 278.211 342.669 295 363.38 295C368.713 295 373.786 293.887 378.38 291.88" stroke="#F88DAD" stroke-width="25" stroke-linecap="round" stroke-linejoin="round"/>
<path d="M286.88 220L286.88 313" stroke="#F88DAD" stroke-width="25" stroke-linecap="round" stroke-linejoin="round"/>
<circle cx="287.13" cy="159.25" r="6.25" stroke="#F88DAD" stroke-width="12.5" stroke-linecap="round" stroke-linejoin="round"/>
<path d="M167.619 125.128C128.88 102.5 82.3824 109.809 82.3824 109.809C82.3824 109.809 82.3824 157 111.734 191.286" stroke="#F88DAD" stroke-width="25" stroke-linejoin="round"/>
<path d="M401.043 153.016C421.482 113.078 411.598 67.0593 411.598 67.0593C411.598 67.0593 364.48 69.6843 331.88 100.898" stroke="#F88DAD" stroke-width="25" stroke-linejoin="round"/>
</svg>
