<svg id="visual" viewBox="0 0 960 540" width="960" height="540" xmlns="http://www.w3.org/2000/svg" xmlns:xlink="http://www.w3.org/1999/xlink" version="1.1"><rect x="0" y="0" width="960" height="540" fill="#1B1B1B"></rect><defs><linearGradient id="grad1_0" x1="43.8%" y1="100%" x2="100%" y2="0%"><stop offset="14.444444444444446%" stop-color="#f7749c" stop-opacity="1"></stop><stop offset="85.55555555555554%" stop-color="#f7749c" stop-opacity="1"></stop></linearGradient></defs><defs><linearGradient id="grad1_1" x1="43.8%" y1="100%" x2="100%" y2="0%"><stop offset="14.444444444444446%" stop-color="#f7749c" stop-opacity="1"></stop><stop offset="85.55555555555554%" stop-color="#d46788" stop-opacity="1"></stop></linearGradient></defs><defs><linearGradient id="grad1_2" x1="43.8%" y1="100%" x2="100%" y2="0%"><stop offset="14.444444444444446%" stop-color="#b25a74" stop-opacity="1"></stop><stop offset="85.55555555555554%" stop-color="#d46788" stop-opacity="1"></stop></linearGradient></defs><defs><linearGradient id="grad1_3" x1="43.8%" y1="100%" x2="100%" y2="0%"><stop offset="14.444444444444446%" stop-color="#b25a74" stop-opacity="1"></stop><stop offset="85.55555555555554%" stop-color="#914d61" stop-opacity="1"></stop></linearGradient></defs><defs><linearGradient id="grad1_4" x1="43.8%" y1="100%" x2="100%" y2="0%"><stop offset="14.444444444444446%" stop-color="#72414e" stop-opacity="1"></stop><stop offset="85.55555555555554%" stop-color="#914d61" stop-opacity="1"></stop></linearGradient></defs><defs><linearGradient id="grad1_5" x1="43.8%" y1="100%" x2="100%" y2="0%"><stop offset="14.444444444444446%" stop-color="#72414e" stop-opacity="1"></stop><stop offset="85.55555555555554%" stop-color="#53343c" stop-opacity="1"></stop></linearGradient></defs><defs><linearGradient id="grad1_6" x1="43.8%" y1="100%" x2="100%" y2="0%"><stop offset="14.444444444444446%" stop-color="#37282b" stop-opacity="1"></stop><stop offset="85.55555555555554%" stop-color="#53343c" stop-opacity="1"></stop></linearGradient></defs><defs><linearGradient id="grad1_7" x1="43.8%" y1="100%" x2="100%" y2="0%"><stop offset="14.444444444444446%" stop-color="#37282b" stop-opacity="1"></stop><stop offset="85.55555555555554%" stop-color="#1b1b1b" stop-opacity="1"></stop></linearGradient></defs><defs><linearGradient id="grad2_0" x1="0%" y1="100%" x2="56.3%" y2="0%"><stop offset="14.444444444444446%" stop-color="#f7749c" stop-opacity="1"></stop><stop offset="85.55555555555554%" stop-color="#f7749c" stop-opacity="1"></stop></linearGradient></defs><defs><linearGradient id="grad2_1" x1="0%" y1="100%" x2="56.3%" y2="0%"><stop offset="14.444444444444446%" stop-color="#d46788" stop-opacity="1"></stop><stop offset="85.55555555555554%" stop-color="#f7749c" stop-opacity="1"></stop></linearGradient></defs><defs><linearGradient id="grad2_2" x1="0%" y1="100%" x2="56.3%" y2="0%"><stop offset="14.444444444444446%" stop-color="#d46788" stop-opacity="1"></stop><stop offset="85.55555555555554%" stop-color="#b25a74" stop-opacity="1"></stop></linearGradient></defs><defs><linearGradient id="grad2_3" x1="0%" y1="100%" x2="56.3%" y2="0%"><stop offset="14.444444444444446%" stop-color="#914d61" stop-opacity="1"></stop><stop offset="85.55555555555554%" stop-color="#b25a74" stop-opacity="1"></stop></linearGradient></defs><defs><linearGradient id="grad2_4" x1="0%" y1="100%" x2="56.3%" y2="0%"><stop offset="14.444444444444446%" stop-color="#914d61" stop-opacity="1"></stop><stop offset="85.55555555555554%" stop-color="#72414e" stop-opacity="1"></stop></linearGradient></defs><defs><linearGradient id="grad2_5" x1="0%" y1="100%" x2="56.3%" y2="0%"><stop offset="14.444444444444446%" stop-color="#53343c" stop-opacity="1"></stop><stop offset="85.55555555555554%" stop-color="#72414e" stop-opacity="1"></stop></linearGradient></defs><defs><linearGradient id="grad2_6" x1="0%" y1="100%" x2="56.3%" y2="0%"><stop offset="14.444444444444446%" stop-color="#53343c" stop-opacity="1"></stop><stop offset="85.55555555555554%" stop-color="#37282b" stop-opacity="1"></stop></linearGradient></defs><defs><linearGradient id="grad2_7" x1="0%" y1="100%" x2="56.3%" y2="0%"><stop offset="14.444444444444446%" stop-color="#1b1b1b" stop-opacity="1"></stop><stop offset="85.55555555555554%" stop-color="#37282b" stop-opacity="1"></stop></linearGradient></defs><g transform="translate(960, 540)"><path d="M-459 0C-425 -53.9 -390.9 -107.7 -357.5 -148.1C-324.2 -188.5 -291.5 -215.3 -265.2 -265.2C-238.8 -315 -218.8 -387.9 -175.7 -424.1C-132.5 -460.2 -66.3 -459.6 0 -459L0 0Z" fill="#292123"></path><path d="M-401.6 0C-371.8 -47.1 -342 -94.3 -312.8 -129.6C-283.7 -164.9 -255.1 -188.4 -232 -232C-209 -275.7 -191.4 -339.4 -153.7 -371.1C-115.9 -402.7 -58 -402.2 0 -401.6L0 0Z" fill="#452e33"></path><path d="M-344.2 0C-318.7 -40.4 -293.2 -80.8 -268.2 -111.1C-243.1 -141.3 -218.6 -161.5 -198.9 -198.9C-179.1 -236.3 -164.1 -290.9 -131.7 -318C-99.4 -345.2 -49.7 -344.7 0 -344.2L0 0Z" fill="#623a45"></path><path d="M-286.9 0C-265.6 -33.7 -244.3 -67.3 -223.5 -92.6C-202.6 -117.8 -182.2 -134.6 -165.7 -165.7C-149.3 -196.9 -136.7 -242.4 -109.8 -265C-82.8 -287.6 -41.4 -287.3 0 -286.9L0 0Z" fill="#814757"></path><path d="M-229.5 0C-212.5 -26.9 -195.5 -53.9 -178.8 -74C-162.1 -94.2 -145.8 -107.6 -132.6 -132.6C-119.4 -157.5 -109.4 -194 -87.8 -212C-66.3 -230.1 -33.1 -229.8 0 -229.5L0 0Z" fill="#a2546a"></path><path d="M-172.1 0C-159.4 -20.2 -146.6 -40.4 -134.1 -55.5C-121.6 -70.7 -109.3 -80.7 -99.4 -99.4C-89.6 -118.1 -82 -145.5 -65.9 -159C-49.7 -172.6 -24.8 -172.4 0 -172.1L0 0Z" fill="#c3607e"></path><path d="M-114.7 0C-106.2 -13.5 -97.7 -26.9 -89.4 -37C-81 -47.1 -72.9 -53.8 -66.3 -66.3C-59.7 -78.8 -54.7 -97 -43.9 -106C-33.1 -115.1 -16.6 -114.9 0 -114.7L0 0Z" fill="#e56d92"></path><path d="M-57.4 0C-53.1 -6.7 -48.9 -13.5 -44.7 -18.5C-40.5 -23.6 -36.4 -26.9 -33.1 -33.1C-29.9 -39.4 -27.3 -48.5 -22 -53C-16.6 -57.5 -8.3 -57.5 0 -57.4L0 0Z" fill="#f7749c"></path></g><g transform="translate(0, 0)"><path d="M459 0C447 58.5 434.9 117 413 171.1C391 225.1 359.1 274.8 318.9 318.9C278.7 363 230.2 401.6 175.7 424.1C121.1 446.5 60.6 452.7 0 459L0 0Z" fill="#292123"></path><path d="M401.6 0C391.1 51.2 380.6 102.4 361.4 149.7C342.1 197 314.2 240.4 279 279C243.9 317.7 201.4 351.4 153.7 371.1C106 390.7 53 396.2 0 401.6L0 0Z" fill="#452e33"></path><path d="M344.3 0C335.2 43.9 326.2 87.7 309.7 128.3C293.3 168.8 269.3 206.1 239.2 239.2C209 272.3 172.6 301.2 131.7 318C90.8 334.9 45.4 339.6 0 344.3L0 0Z" fill="#623a45"></path><path d="M286.9 0C279.4 36.6 271.8 73.1 258.1 106.9C244.4 140.7 224.4 171.7 199.3 199.3C174.2 226.9 143.9 251 109.8 265C75.7 279.1 37.8 283 0 286.9L0 0Z" fill="#814757"></path><path d="M229.5 0C223.5 29.2 217.5 58.5 206.5 85.5C195.5 112.6 179.6 137.4 159.5 159.5C139.3 181.5 115.1 200.8 87.8 212C60.6 223.2 30.3 226.4 0 229.5L0 0Z" fill="#a2546a"></path><path d="M172.1 0C167.6 21.9 163.1 43.9 154.9 64.1C146.6 84.4 134.7 103 119.6 119.6C104.5 136.1 86.3 150.6 65.9 159C45.4 167.4 22.7 169.8 0 172.1L0 0Z" fill="#c3607e"></path><path d="M114.8 0C111.7 14.6 108.7 29.2 103.2 42.8C97.8 56.3 89.8 68.7 79.7 79.7C69.7 90.8 57.5 100.4 43.9 106C30.3 111.6 15.1 113.2 0 114.8L0 0Z" fill="#e56d92"></path><path d="M57.4 0C55.9 7.3 54.4 14.6 51.6 21.4C48.9 28.1 44.9 34.3 39.9 39.9C34.8 45.4 28.8 50.2 22 53C15.1 55.8 7.6 56.6 0 57.4L0 0Z" fill="#f7749c"></path></g></svg>