<svg width="500" height="500" viewBox="0 0 500 500" fill="none" xmlns="http://www.w3.org/2000/svg">
<path d="M389.509 215.171C361.332 164.096 306.956 89 244.5 89C153.097 89 79 203.597 79 295C79 386.403 153.097 421 244.5 421C335.903 421 410 386.403 410 295H306" stroke="#7FDEFF" stroke-width="25" stroke-linecap="round" stroke-linejoin="round"/>
<path d="M152 137.5L152 294.5M152 294.5L79.5 294.5M152 294.5L152 350.5" stroke="#7FDEFF" stroke-width="25" stroke-linecap="round" stroke-linejoin="round"/>
<circle cx="189.5" cy="295" r="37.5" stroke="#7FDEFF" stroke-width="25" stroke-linecap="round" stroke-linejoin="round"/>
<path d="M380 295C380 274.289 363.211 257.5 342.5 257.5C321.789 257.5 305 274.289 305 295C305 315.711 321.789 332.5 342.5 332.5C347.833 332.5 352.907 331.387 357.5 329.38" stroke="#7FDEFF" stroke-width="25" stroke-linecap="round" stroke-linejoin="round"/>
<path d="M266 257.5L266 350.5" stroke="#7FDEFF" stroke-width="25" stroke-linecap="round" stroke-linejoin="round"/>
<circle cx="266.25" cy="196.75" r="6.25" stroke="#7FDEFF" stroke-width="12.5" stroke-linecap="round" stroke-linejoin="round"/>
<path d="M399.509 205.171C371.332 154.096 316.956 79 254.5 79C163.097 79 89 193.597 89 285C89 376.403 163.097 411 254.5 411C345.903 411 420 376.403 420 285H316" stroke="#F07BAA" stroke-width="25" stroke-linecap="round" stroke-linejoin="round"/>
<path d="M162 127.5L162 284.5M162 284.5L89.5 284.5M162 284.5L162 340.5" stroke="#F07BAA" stroke-width="25" stroke-linecap="round" stroke-linejoin="round"/>
<circle cx="199.5" cy="285" r="37.5" stroke="#F07BAA" stroke-width="25" stroke-linecap="round" stroke-linejoin="round"/>
<path d="M390 285C390 264.289 373.211 247.5 352.5 247.5C331.789 247.5 315 264.289 315 285C315 305.711 331.789 322.5 352.5 322.5C357.833 322.5 362.907 321.387 367.5 319.38" stroke="#F07BAA" stroke-width="25" stroke-linecap="round" stroke-linejoin="round"/>
<path d="M276 247.5L276 340.5" stroke="#F07BAA" stroke-width="25" stroke-linecap="round" stroke-linejoin="round"/>
<circle cx="276.25" cy="186.75" r="6.25" stroke="#F07BAA" stroke-width="12.5" stroke-linecap="round" stroke-linejoin="round"/>
</svg>
