<svg width="500" height="500" viewBox="0 0 500 500" fill="none" xmlns="http://www.w3.org/2000/svg">
<path d="M390.509 174.671C362.332 123.596 307.956 88.9999 245.5 88.9999C154.097 88.9999 80 163.097 80 254.5C80 345.903 154.097 420 245.5 420C336.903 420 411 345.903 411 254.5H307" stroke="#7FDEFF" stroke-width="25" stroke-linecap="round" stroke-linejoin="round"/>
<path d="M153 121.5L153 254M153 254L80.5 254M153 254L153 310" stroke="#7FDEFF" stroke-width="25" stroke-linecap="round" stroke-linejoin="round"/>
<circle cx="190.5" cy="254.5" r="37.5" stroke="#7FDEFF" stroke-width="25" stroke-linecap="round" stroke-linejoin="round"/>
<path d="M381 254.5C381 233.789 364.211 217 343.5 217C322.789 217 306 233.789 306 254.5C306 275.211 322.789 292 343.5 292C348.833 292 353.907 290.887 358.5 288.88" stroke="#7FDEFF" stroke-width="25" stroke-linecap="round" stroke-linejoin="round"/>
<path d="M267 217L267 310" stroke="#7FDEFF" stroke-width="25" stroke-linecap="round" stroke-linejoin="round"/>
<circle cx="267.25" cy="156.25" r="6.25" stroke="#7FDEFF" stroke-width="12.5" stroke-linecap="round" stroke-linejoin="round"/>
<path d="M398.509 166.671C370.332 115.596 315.956 81 253.5 81C162.097 81 88 155.097 88 246.5C88 337.903 162.097 412 253.5 412C344.903 412 419 337.903 419 246.5H315" stroke="#F07BAA" stroke-width="25" stroke-linecap="round" stroke-linejoin="round"/>
<path d="M161 113.5L161 246M161 246L88.5 246M161 246L161 302" stroke="#F07BAA" stroke-width="25" stroke-linecap="round" stroke-linejoin="round"/>
<circle cx="198.5" cy="246.5" r="37.5" stroke="#F07BAA" stroke-width="25" stroke-linecap="round" stroke-linejoin="round"/>
<path d="M389 246.5C389 225.789 372.211 209 351.5 209C330.789 209 314 225.789 314 246.5C314 267.211 330.789 284 351.5 284C356.833 284 361.907 282.887 366.5 280.88" stroke="#F07BAA" stroke-width="25" stroke-linecap="round" stroke-linejoin="round"/>
<path d="M275 209L275 302" stroke="#F07BAA" stroke-width="25" stroke-linecap="round" stroke-linejoin="round"/>
<circle cx="275.25" cy="148.25" r="6.25" stroke="#F07BAA" stroke-width="12.5" stroke-linecap="round" stroke-linejoin="round"/>
</svg>
