<svg width="343" height="308" viewBox="0 0 343 308" fill="none" xmlns="http://www.w3.org/2000/svg">
<g clip-path="url(#clip0_236:21)">
<path d="M132.199 272.762L137.208 269.871L135.504 268.701C134.4 270.056 133.298 271.41 132.199 272.762Z" fill="#FE697D"/>
<path d="M196.607 165.779C201.083 148.797 202.45 130.537 197.117 113.809C191.786 97.0779 178.952 82.1558 162.056 77.3746C145.159 72.596 124.759 79.9621 117.28 95.8514C111.682 107.746 112.58 123.841 101.689 131.208C88.6115 140.054 71.1727 128.28 55.4665 129.903C40.9518 131.401 29.6867 145.197 28.0293 159.695C26.3693 174.191 32.7622 188.685 42.1455 199.861C51.5304 211.035 63.7194 219.437 75.7505 227.692C95.6685 241.363 115.586 255.033 135.504 268.701C160.934 237.401 186.35 204.669 196.607 165.779Z" fill="#FE697D"/>
<path d="M168.771 227.478C158.488 244.899 148.856 262.713 139.76 280.78C161.823 249.384 182.391 225.92 207.331 194.628C215.407 184.405 222.916 173.747 229.823 162.701C256.448 157.458 280.546 143.858 300.845 126.017C276.578 135.637 254.064 148.946 230.9 160.87C237.252 150.513 242.585 139.564 246.824 128.178C251.911 114.732 256.465 100.511 255.498 85.966C253.558 64.4047 247.71 46.8009 229.294 33.0522C212.675 22.6136 192.452 27.1358 178.527 39.9215C166.789 49.3299 158.874 62.0774 153.026 75.7232C144.562 60.9593 129.14 46.8876 106.067 56.7717C84.5911 64.8301 68.4287 82.7066 57.8836 102.628C46.2347 124.394 45.5035 150.219 52.0452 173.69C59.0248 201.107 75.4392 224.534 92.5268 246.599C100.238 256.985 111.986 270.978 118.22 278.99C125.578 288.613 132.609 298.481 140.131 307.978C128.2 284.958 115.387 262.464 101.897 240.321C88.6828 217.839 77.222 198.93 71.9524 177.929C66.9054 160.598 65.806 143.108 68.1069 130.772C72.6755 103.787 92.1696 80.1886 109.705 74.0335C124.034 68.1933 130.184 72.2386 138.196 86.4128C139.86 89.9802 139.064 87.8785 141.183 94.1273C142.314 98.0907 143.639 102.337 147.367 104.595C152.565 107.848 159.522 105.289 162.227 100.023C163.372 97.576 164.241 95.0093 164.821 92.3703C164.84 92.3385 164.856 92.3052 164.869 92.2707C166.665 87.1293 168.439 81.9795 170.493 76.934C171.631 74.5027 174.556 68.342 175.57 67.1615C176.166 66.3014 176.763 65.441 177.361 64.5803C177.491 64.4161 177.627 64.243 177.772 64.063C186.024 53.9815 192.63 49.6599 198.698 47.1863C207.758 44.1113 210.302 46.5095 215.347 47.7011C220.822 50.8084 218.955 49.3461 224.137 54.9824C236.967 73.5367 238.372 91.7633 231.022 114.466C220.373 151.119 191.988 189.428 168.771 227.478Z" fill="white"/>
<path d="M114.246 117.092C98.3764 117.485 98.4182 140.735 114.247 141.171C130.118 140.778 130.076 117.528 114.246 117.092Z" fill="white"/>
<path d="M178.574 106.064C162.705 106.458 162.746 129.708 178.575 130.144C194.445 129.751 194.404 106.501 178.574 106.064Z" fill="white"/>
<path d="M155.729 179.24C151.341 182.392 146.677 185.142 141.795 187.455C134.624 190.21 126.98 191.452 119.489 193.022C135.452 194.731 147.52 192.314 157.663 178.981C161.086 174.648 158.192 177.612 155.729 179.24Z" fill="white"/>
<path d="M338.598 96.9541C335.459 93.4874 331.322 91.3237 330.214 90.0957C330.199 90.0686 330.182 90.0423 330.164 90.0171C329.039 86.7998 326.7 84.1502 323.648 82.6341C320.595 81.1181 317.07 80.8559 313.827 81.9036C308.025 84.1346 303.998 89.387 300.698 94.4416C294.497 104.116 294.488 116.096 294.148 127.206C297.826 116.62 299.059 109.924 304.861 101.441C308.891 96.3449 313.772 92.3848 316.323 91.4772C318.213 91.4655 317.738 91.3387 319.101 92.085L319.116 92.0975C319.208 92.1893 319.314 92.3003 319.408 92.4009C319.495 92.5457 319.575 92.689 319.638 92.8029C320.705 96.8586 323.984 99.6231 327.475 101.705C327.864 101.94 328.636 102.501 329.143 102.874C330.027 103.56 330.852 104.319 331.61 105.142C331.636 105.172 331.645 105.184 331.668 105.21C333.461 107.815 332.667 110.272 331.347 114.159C328.584 120.484 322.977 124.155 318.177 127.329C312.973 130.659 307.152 132.787 301.524 135.268C302.293 135.177 303.064 135.089 303.833 134.996C315.016 133.977 326.541 131.134 335.105 123.47C342.185 116.944 346.061 104.616 338.598 96.9541Z" fill="white"/>
<path d="M293.287 29.5293C277.417 29.9224 277.458 53.1725 293.287 53.609C309.157 53.2155 309.116 29.9658 293.287 29.5293Z" fill="white"/>
<path d="M130.005 0C114.135 0.39352 114.177 23.6435 130.006 24.0797C145.876 23.6862 145.835 0.43614 130.005 0Z" fill="white"/>
<path d="M11.887 251.869C-3.9829 252.263 -3.94175 275.512 11.887 275.949C27.7576 275.556 27.7165 252.306 11.887 251.869Z" fill="white"/>
<path d="M138.809 147.273C133.79 149.987 130.67 155.913 132.639 161.611C133.154 162.951 133.982 164.149 135.053 165.105C136.124 166.061 137.408 166.748 138.798 167.109C141.24 167.924 137.538 166.227 136.993 165.47C133.532 162.249 133.918 156.309 137.24 153.131C138.716 151.449 140.602 151.183 142.053 149.029C143.465 142.5 143.28 135.545 143.632 128.852C141.615 134.859 140.709 141.319 138.809 147.273Z" fill="white"/>
</g>
<defs>
<clipPath id="clip0_236:21">
<rect width="342.641" height="307.979" fill="white"/>
</clipPath>
</defs>
</svg>
