<svg width="871" height="232" viewBox="0 0 871 232" fill="none" xmlns="http://www.w3.org/2000/svg">
<g clip-path="url(#clip0_236:2)">
<path d="M818.528 92.737C819.78 121.803 827.901 150.158 842.227 175.479C833.121 137.45 835.512 97.5743 849.097 60.9061L851.045 58.3362C843.482 51.623 830.578 55.4192 824.657 63.6178C818.737 71.8159 818.104 82.6333 818.528 92.737Z" fill="#FE697D"/>
<path d="M509.938 165.033C506.537 173.622 497.429 180.713 488.443 178.571C482.712 177.206 478.389 172.559 474.863 167.838C466.069 156.034 459.973 142.443 457.006 128.025C445.068 143.522 438.699 162.59 438.928 182.151C439.048 189.762 440.333 197.724 444.967 203.762C452.116 213.075 465.559 215.394 477.049 212.985C484.937 211.331 492.328 207.849 498.626 202.819C504.924 197.789 509.954 191.351 513.312 184.023C516.669 176.695 518.261 168.682 517.958 160.627C517.655 152.572 515.466 144.701 511.568 137.646C512.48 146.839 513.339 156.444 509.938 165.033Z" fill="#FE697D"/>
<path d="M153.059 169.128C149.658 177.717 140.55 184.808 131.564 182.666C125.832 181.3 121.51 176.654 117.984 171.933C109.19 160.129 103.094 146.538 100.127 132.12C88.1887 147.617 81.8202 166.685 82.0492 186.246C82.1688 193.856 83.4535 201.819 88.0882 207.857C95.2367 217.169 108.68 219.489 120.169 217.08C128.058 215.426 135.449 211.944 141.747 206.913C148.045 201.883 153.075 195.446 156.433 188.118C159.79 180.79 161.382 172.777 161.079 164.722C160.776 156.667 158.587 148.796 154.689 141.741C155.601 150.934 156.46 160.539 153.059 169.128Z" fill="#FE697D"/>
<path d="M83.8937 169.128C80.4931 177.717 71.3845 184.808 62.3986 182.666C56.6672 181.3 52.3443 176.654 48.8188 171.933C40.0248 160.129 33.929 146.538 30.9618 132.12C19.0234 147.617 12.6549 166.685 12.8839 186.246C13.0035 193.856 14.2882 201.819 18.9229 207.857C26.0714 217.169 39.5144 219.489 51.0041 217.08C58.8929 215.426 66.2835 211.944 72.5817 206.913C78.8799 201.883 83.9099 195.446 87.2674 188.118C90.625 180.79 92.2163 172.777 91.9134 164.722C91.6105 156.667 89.4219 148.796 85.5236 141.741C86.4356 150.934 87.2948 160.539 83.8937 169.128Z" fill="#FE697D"/>
<path d="M172.706 67.5518C170.596 76.982 168.781 93.801 166.552 105.748C163.02 126.242 161.036 138.385 157.173 157.038C153.487 174.246 150.163 186.23 144.096 198.106C140.116 205.087 141.673 202.964 136.603 207.988C131.085 212.502 134.004 210.759 127.809 214.265C127.746 214.295 127.682 214.321 127.618 214.351C127.56 214.372 127.504 214.395 127.446 214.416C126.96 214.594 126.467 214.755 125.97 214.9C125.392 215.075 124.814 215.209 124.363 215.303C123.177 215.43 121.981 215.442 120.793 215.337C119.836 215.123 118.722 214.776 118.069 214.574C117.477 214.277 116.906 213.941 116.359 213.567C116.217 213.431 116.042 213.262 115.83 213.056C111.375 207.88 111.854 209.153 108.132 201.615C107.224 199.574 107.839 200.958 108.331 202.147C103.844 192.465 101.933 177.487 101.382 173.114C100.06 162.535 99.0798 151.865 98.6381 141.178C99.7037 133.198 100.591 125.184 101.101 117.15C101.218 111.574 102.356 105.618 100.38 100.276C98.065 94.2371 89.7336 92.9631 85.9658 98.3913C84.0983 100.563 83.9893 103.547 83.6354 106.26C83.2956 109.804 83.2839 113.366 83.2611 116.924C83.3247 120.904 83.3987 125.249 83.5135 129.836C83.3779 131.291 83.2418 132.747 83.1051 134.202C81.0596 153.333 76.5248 178.802 66.6254 195.505C59.7103 207.493 49.6866 212.125 45.0037 211.622C35.8052 210.143 32.4499 204.654 24.772 191.425C13.9489 171.608 9.59586 147.345 7.43722 123.638C6.68108 110.69 5.15673 97.0959 9.009 84.5164C5.712 89.9446 4.46587 96.3188 3.15031 102.455C1.38881 112.069 0.372745 121.806 0.111169 131.577C-0.836301 161.506 4.00417 194.41 25.0374 217.182C42.7627 234.597 65.3357 224.92 77.9323 206.792C82.0958 200.443 85.5328 193.647 88.1785 186.53C91.0966 204.113 99.3252 227.543 117.625 230.869C128.048 233.114 138.287 228.26 145.926 221.399C154.351 215.173 159.094 205.695 163.065 196.267C167.194 186.978 169.476 177.027 171.087 167.026C176.009 134.124 176.131 100.611 172.706 67.5518Z" fill="white"/>
<path d="M255.184 216.638C245.586 217.728 237.029 217.625 230.51 216.089C216.884 213.212 205.566 206.624 203.331 203.598C192.689 187.839 191.641 175.381 194.054 160.95C196.686 146.777 198.186 142.949 206.52 130.809C209.397 127.46 215.206 121.65 221.005 121.803C228.285 121.846 240.681 125.126 245.165 131.119C247.675 136.359 252.176 143.779 239.438 155.022C231.825 160.578 221.5 161.986 212.482 164.834C225.181 163.538 239.782 164.247 249.264 154.205C258.685 145.958 259.583 133.194 253.489 122.658C250.461 117.9 245.629 114.762 240.738 112.162C229.744 106.574 216.015 103.883 204.95 110.719C181.185 125.958 169.138 167.312 179.516 193.317C184.206 205.182 191.757 217.275 204.515 221.383C220.915 227.619 239.031 227.627 255.436 221.405C261.58 219.255 267.485 216.477 273.059 213.115C267.21 214.789 261.23 215.967 255.184 216.638Z" fill="white"/>
<path d="M345.475 221.46C337.153 221.74 327.877 219.478 321.935 214.398C313.475 207.817 306.53 199.493 301.571 189.992C313.091 176.221 321.115 161.177 327.864 140.198C333.525 122.185 337.816 103.553 339.034 84.6743C339.152 73.0782 338.759 61.2327 335.739 49.9818C330.69 35.8663 321.544 27.3835 306.319 34.507C282.306 44.8107 273.692 78.6566 272.39 108.313C271.184 137.64 274.898 169.959 291.116 195.088C286.221 201.952 281.25 207.881 275.665 215.167C281.918 210.006 287.908 204.535 293.613 198.773C294.785 200.409 296.014 202.01 297.302 203.576C305.077 212.157 314.835 219.445 325.928 223.037C332.605 224.974 339.783 224.037 346.405 222.316C347.649 221.964 348.873 221.55 350.087 221.109C348.557 221.306 347.018 221.423 345.475 221.46V221.46ZM305.731 50.4264C312.241 46.1042 312.439 46.7073 314.596 46.1585C315.103 46.1202 315.613 46.1091 316.122 46.1254C316.409 46.1863 316.691 46.2554 316.972 46.34L317.035 46.3795C317.139 46.4798 317.267 46.6075 317.397 46.7381C318.411 48.2192 319.334 49.7608 320.161 51.3544C320.652 52.5115 320.854 52.2819 321.992 57.0055C324.226 70.3784 324.457 84.0092 322.679 97.4502C321.701 103.14 316.847 132.196 313.1 145.25C309.173 160.361 305.385 171.048 298.502 183.395C294.778 174.32 292.332 164.145 289.999 152.263C284.282 124.947 283.241 66.3812 305.731 50.4264V50.4264Z" fill="white"/>
<path d="M364.146 173.387C364.043 174.086 364.023 174.346 364.146 173.387V173.387Z" fill="white"/>
<path d="M401.245 217.786C392.53 217.731 384.635 216.352 379.295 214.057C371.056 209.106 366.525 203.745 364.737 193.829C364.496 192.584 362.901 179.844 364.256 172.513C364.211 172.876 364.175 173.164 364.146 173.386C364.21 172.96 364.303 172.373 364.415 171.795C366.113 162.588 369.387 152.245 371.652 147.637C371.463 148.086 371.274 148.534 371.085 148.982C373.822 142.872 376.162 136.508 379.988 130.967C382.684 127.412 385.794 124.191 389.251 121.371C394.034 117.491 399.851 115.229 405.245 112.359C383.948 115.998 372.754 123.808 361.896 142.472C355.68 152.066 351.532 162.85 349.715 174.136C348.599 180.885 349.579 187.718 350.68 194.402C352.484 206.901 361.491 217.623 373.162 222.222C384.966 226.256 398.102 223.228 409.433 218.94C410.811 218.369 412.178 217.768 413.524 217.126C409.453 217.649 405.349 217.87 401.245 217.786V217.786Z" fill="white"/>
<path d="M523.97 156.006C520.824 146.085 513.059 137.882 503.866 133.203C494.208 128.978 483.404 128.457 473.006 128.047C472.583 127.996 470.821 127.973 471.876 128.126C477.793 129.525 483.593 131.38 489.222 133.676C492.851 135.189 496.317 137.067 499.566 139.282C502.215 141.41 504.526 143.927 506.42 146.748C515.879 159.84 512.2 174.325 501.514 190.49C497.749 194.881 479.993 208.01 472.126 206.651C457.26 206.498 438.321 187.565 440.426 163.692C440.178 159.963 443.646 149.777 445.615 145.89C448.614 139.449 451.495 134.258 456.732 129.806C460.565 126.495 465.227 124.29 470.218 123.426C474.223 122.808 478.312 123.202 482.35 123.069C457.883 115.618 443.287 129.196 432.367 149.766C419.744 173.617 429.087 206.012 452.771 219.128C473.985 231.522 495.795 220.432 511.757 204.958C522.978 192.576 528.558 172.225 523.97 156.006Z" fill="white"/>
<path d="M694.039 139.002C689.329 122.418 674.215 104.856 655.862 114.889C645.845 121.609 641.573 133.217 638.052 144.401C636.286 138.599 633.396 133.202 629.546 128.517C625.669 123.206 620.148 118.387 613.312 117.985C606.099 118.015 598.627 120.985 594.036 126.676C588.889 132.942 586.327 140.804 583.033 148.11C580.992 152.945 578.976 157.818 577.304 162.796C573.947 151.409 569.771 140.28 564.811 129.494C569.715 150.403 571.239 170.166 571.776 191.455C571.341 195.61 571.031 199.777 570.946 203.959C571.056 209.234 570.351 216.235 575.529 219.367C577.352 220.405 579.509 220.688 581.538 220.156C583.568 219.624 585.308 218.318 586.387 216.519C587.629 214.349 587.621 211.889 587.356 209.439C587.388 205.032 588.249 200.633 588.727 196.248C590.055 188.481 591.344 180.698 593.137 173.023C594.676 167.345 596.618 161.783 598.946 156.38C601.203 150.593 603.835 144.958 606.823 139.512C607.065 139.125 607.339 138.758 607.601 138.383C608.005 137.941 608.424 137.537 608.729 137.252C609.054 137.054 609.372 136.877 609.643 136.736C610.31 136.489 610.994 136.291 611.69 136.144C611.848 136.291 612.02 136.422 612.171 136.576C615.672 140.8 615.667 139.944 619.329 147.216C619.348 147.265 619.359 147.292 619.379 147.344C623.923 161.229 625.219 177.767 626.225 185.245C626.519 189.124 626.891 193.012 627.154 196.904C626.684 201.573 626.403 205.887 626.32 209.671C625.963 220.841 638.47 225.662 644.614 215.85C647.536 209.822 646.16 202.817 645.988 196.361C645.851 194.019 645.657 191.682 645.455 189.346C646.946 175.924 649.814 162.691 654.013 149.856C657.494 139.142 658.796 136.069 662.902 131.468C663.33 130.985 663.785 130.528 664.266 130.098C664.65 129.842 665.044 129.606 665.45 129.387C665.532 129.364 665.612 129.337 665.695 129.317C666.147 129.298 666.726 129.286 667.297 129.308C667.705 129.396 668.222 129.52 668.736 129.676C669.387 130.008 670.016 130.381 670.619 130.792C681.598 137.963 690.581 172.847 697.131 205.249C697.746 208.304 698.312 211.37 698.759 214.455C699.258 209.605 699.546 204.735 699.731 199.863C700.243 179.485 699.811 158.697 694.039 139.002Z" fill="white"/>
<path d="M805.492 223.218C801.378 224.164 797.168 224.623 792.948 224.586C763.216 224.538 740.066 206.507 734.635 188.183C731.88 178.052 732.225 178.758 731.655 171.203C731.702 163.196 731.474 167.974 732.828 159.715C735.722 144.437 740.527 134.703 745.858 129.037C748.582 125.814 751.637 122.886 754.972 120.3C755.397 119.981 755.818 119.656 756.253 119.351C762.688 115.239 760.453 116.646 764.926 115.028C766.899 114.402 768.908 113.896 770.942 113.512L770.975 113.509C772.165 113.421 773.36 113.44 774.547 113.567C775.517 113.797 776.561 114.119 777.241 114.332C777.835 114.632 778.409 114.968 778.96 115.34C783.09 119.805 781.254 116.969 783.725 121.597C786.452 129.563 783.733 141.175 779.13 150.49C773.506 161.752 757.709 164.695 742.581 157.339C758.363 170.073 779.76 170.509 790.911 151.77C796.545 142.629 800.676 131.907 799.604 121.015C799.114 116.394 797.548 111.952 795.031 108.046C792.514 104.14 789.117 100.878 785.112 98.522C776.295 93.7383 765.805 94.7465 756.654 98.0327C746.259 101.976 737.476 109.62 730.529 118.166C722.962 126.886 718.701 137.768 715.903 148.846C714.395 154.791 713.358 160.846 712.804 166.955C712.858 182.253 717.584 197.947 727.952 209.44C746.736 230.153 779.64 236.03 804.741 224.029C805.979 223.353 808.289 222.417 805.492 223.218Z" fill="white"/>
<path d="M844.317 201.927C835.335 202.149 835.358 215.309 844.317 215.556C853.3 215.333 853.276 202.174 844.317 201.927Z" fill="white"/>
<path d="M868.728 84.3284C867.286 74.523 864.42 64.9806 860.222 56.0029C855.476 44.502 847.435 33.5905 836.162 27.8733C817.338 19.8468 808.025 37.5909 806.532 53.8147C805.289 64.1891 807.716 74.5482 809.691 84.6826C816.178 115.208 831.032 142.968 841.103 172.326C839.519 176.347 837.988 180.389 836.767 184.536C845.234 171.384 854.551 158.707 861.657 144.729C871.655 127.049 870.997 96.2205 868.728 84.3284ZM843.858 165.353C842.949 167.678 842.02 169.999 841.104 172.324C837.125 144.227 824.723 104.343 822.241 82.6269C821.259 74.3685 819.87 66.0757 820.406 57.7344C820.434 53.3094 823.077 43.4901 825.5 40.9704L825.54 40.9398C825.822 40.7479 826.113 40.5684 826.412 40.4046C826.681 40.3208 826.934 40.2517 827.151 40.1985C827.373 40.1879 827.594 40.1833 827.816 40.1879C829.549 40.5254 829.255 40.395 832.004 42.2286C842.565 51.6584 843.455 57.3343 848.669 70.9828C854.316 90.4354 855.125 99.9313 855.767 119.993C856.673 135.004 850.471 148.787 843.858 165.353V165.353Z" fill="white"/>
<path d="M437.25 82.0762C428.268 82.2987 428.291 95.4581 437.25 95.7051C446.233 95.4826 446.21 82.3232 437.25 82.0762Z" fill="white"/>
<path d="M489.252 83.8096C480.27 84.0323 480.293 97.1914 489.252 97.4385C498.235 97.2158 498.212 84.0564 489.252 83.8096Z" fill="white"/>
<path d="M505.936 20.5198C503.187 17.0144 501.228 13.0245 498.878 9.27742C496.874 6.56554 494.296 4.32949 491.328 2.72893C488.36 1.12837 485.075 0.202743 481.708 0.0181443C477.538 -0.121946 473.392 0.706961 469.596 2.43971C465.8 4.17247 462.458 6.76187 459.832 10.0044C456.103 14.3203 455.616 15.4351 453.178 16.7166C452.746 16.8568 452.158 17.0356 451.615 17.1554C451.389 17.1693 451.106 17.1785 450.802 17.1733C450.424 17.0843 449.914 16.9537 449.443 16.7956L449.421 16.7856C440.987 12.4594 430.426 7.67007 421.297 12.7221C412.687 18.2871 412.004 30.8777 414.283 39.9594C416.765 48.1054 422.751 54.4466 427.717 61.1562C424.245 53.4675 419.193 46.0491 418.635 37.4187C418.48 32.3174 419.701 27.2685 422.168 22.8011C423.841 20.7462 426.003 19.7139 427.558 19.9186C430.916 20.1808 433.581 20.771 438.181 23.6658C442.482 26.3487 446.822 29.7838 452.17 29.5476C461.579 29.5923 465.92 22.8681 471.395 16.492C471.837 16.001 472.637 15.2962 473.077 14.9098C473.162 14.8508 473.243 14.7865 473.328 14.7293C473.944 14.315 474.59 13.9491 475.262 13.6348C475.49 13.5473 475.715 13.4503 475.946 13.3726C480.986 12.1851 478.262 12.3174 482.857 12.4896C483.225 12.5576 483.642 12.6447 484.013 12.7462C484.456 12.8622 484.929 13.0157 485.299 13.1403C491.533 16.3598 490.159 17.7406 497.422 25.0872C504.186 32.4912 511.117 38.0401 514.696 45.8944C516.468 50.6334 516.374 55.6411 515.853 60.8193C515.365 63.3073 516.415 60.2807 516.819 59.3894C523.606 43.6895 514.534 32.9039 505.936 20.5198Z" fill="white"/>
<path d="M489.077 109.745C479.686 111.694 472.136 111.948 461.251 112.989C466.838 113.933 472.595 114.796 478.235 113.814C482.146 113.102 485.914 111.753 489.389 109.821C490.116 109.414 489.479 109.674 489.077 109.745Z" fill="white"/>
</g>
<defs>
<clipPath id="clip0_236:2">
<rect width="870.131" height="231.423" fill="white"/>
</clipPath>
</defs>
</svg>
